<svg width="1200" height="630" viewBox="0 0 1200 630" xmlns="http://www.w3.org/2000/svg">
<rect width="1200" height="630" fill="#ffffff"/>
<pattern id="dots" x="0" y="0" width="24" height="24" patternUnits="userSpaceOnUse">
  <rect x="11" y="11" width="2" height="2" fill="#ebebea"/>
</pattern>
<rect width="1200" height="630" fill="url(#dots)"/>

<!-- K shadow -->
<g fill="#0a0a0a" transform="translate(6,6)">
  <rect x="120" y="110" width="56" height="400"/>
  <rect x="176" y="214" width="56" height="56"/>
  <rect x="232" y="158" width="56" height="56"/>
  <rect x="288" y="110" width="56" height="56"/>
  <rect x="176" y="350" width="56" height="56"/>
  <rect x="232" y="406" width="56" height="56"/>
  <rect x="288" y="454" width="56" height="56"/>
</g>
<!-- K green -->
<g fill="#C6FF00">
  <rect x="120" y="110" width="56" height="400"/>
  <rect x="176" y="214" width="56" height="56"/>
  <rect x="232" y="158" width="56" height="56"/>
  <rect x="288" y="110" width="56" height="56"/>
  <rect x="176" y="350" width="56" height="56"/>
  <rect x="232" y="406" width="56" height="56"/>
  <rect x="288" y="454" width="56" height="56"/>
</g>

<!-- D shadow -->
<g fill="#0a0a0a" transform="translate(6,6)">
  <rect x="400" y="110" width="56" height="400"/>
  <rect x="456" y="110" width="168" height="56"/>
  <rect x="456" y="454" width="168" height="56"/>
  <rect x="624" y="166" width="56" height="56"/>
  <rect x="680" y="222" width="56" height="232"/>
  <rect x="624" y="398" width="56" height="56"/>
</g>
<!-- D green -->
<g fill="#C6FF00">
  <rect x="400" y="110" width="56" height="400"/>
  <rect x="456" y="110" width="168" height="56"/>
  <rect x="456" y="454" width="168" height="56"/>
  <rect x="624" y="166" width="56" height="56"/>
  <rect x="680" y="222" width="56" height="232"/>
  <rect x="624" y="398" width="56" height="56"/>
</g>

<text x="820" y="250" font-family="'Arial Black','Helvetica Neue',sans-serif" font-size="13" font-weight="900" letter-spacing="6" fill="#0a0a0a">KADEE LIN</text>
<line x1="820" y1="268" x2="1100" y2="268" stroke="#d0d0c8" stroke-width="1"/>
<text x="820" y="298" font-family="'Arial Black','Helvetica Neue',sans-serif" font-size="12" font-weight="400" letter-spacing="5" fill="#8a8a82">PORTFOLIO</text>
<text x="820" y="370" font-family="'Courier New',monospace" font-size="11" letter-spacing="2" fill="#aaaaaa">行銷統籌 · 專案企劃</text>
<text x="820" y="390" font-family="'Courier New',monospace" font-size="11" letter-spacing="2" fill="#aaaaaa">音樂產業 · 品牌合作</text>
<text x="1080" y="155" font-family="Georgia,serif" font-size="18" fill="#C6FF00">✦</text>
<text x="1110" y="182" font-family="Georgia,serif" font-size="10" fill="#d0d0c8">✦</text>
<rect x="72" y="80" width="4" height="470" fill="#0a0a0a"/>
<rect x="80" y="568" width="1040" height="1" fill="#d0d0c8"/>
<text x="80" y="596" font-family="'Courier New',monospace" font-size="10" letter-spacing="3" fill="#b0b0a8">KIDDDIING-MORE.GITHUB.IO/KADEELIN</text>
</svg>
